<svg width="77" height="13" viewBox="0 0 77 13" fill="none" xmlns="http://www.w3.org/2000/svg">
<path fill-rule="evenodd" clip-rule="evenodd" d="M18.8039 0.499939H17.6373C16.9929 0.499939 16.4706 1.00362 16.4706 1.62494V11.3749C16.4706 11.9963 16.9929 12.4999 17.6373 12.4999H18.8039C19.4482 12.4999 19.9706 11.9963 19.9706 11.3749V1.62494C19.9706 1.00362 19.4482 0.499939 18.8039 0.499939ZM12.1471 3.12507H13.3137C13.9581 3.12507 14.4804 3.62875 14.4804 4.25007V11.3751C14.4804 11.9964 13.9581 12.5001 13.3137 12.5001H12.1471C11.5027 12.5001 10.9804 11.9964 10.9804 11.3751V4.25007C10.9804 3.62875 11.5027 3.12507 12.1471 3.12507ZM7.82353 5.74986H6.65686C6.01253 5.74986 5.4902 6.25354 5.4902 6.87486V11.3749C5.4902 11.9962 6.01253 12.4999 6.65686 12.4999H7.82353C8.46786 12.4999 8.9902 11.9962 8.9902 11.3749V6.87486C8.9902 6.25354 8.46786 5.74986 7.82353 5.74986ZM2.33333 7.99982H1.16667C0.522334 7.99982 0 8.5035 0 9.12482V11.3748C0 11.9961 0.522334 12.4998 1.16667 12.4998H2.33333C2.97767 12.4998 3.5 11.9961 3.5 11.3748V9.12482C3.5 8.5035 2.97767 7.99982 2.33333 7.99982Z" fill="#101010"/>
<path fill-rule="evenodd" clip-rule="evenodd" d="M34.4712 2.84599C36.9377 2.8461 39.31 3.81668 41.0976 5.55712C41.2322 5.69149 41.4474 5.68979 41.5799 5.55332L42.8667 4.2234C42.9338 4.15418 42.9713 4.06042 42.9707 3.96287C42.9701 3.86531 42.9316 3.77201 42.8637 3.7036C38.1718 -0.901199 30.7698 -0.901199 26.0779 3.7036C26.0099 3.77196 25.9713 3.86523 25.9707 3.96279C25.9701 4.06034 26.0074 4.15413 26.0745 4.2234L27.3617 5.55332C27.4942 5.69 27.7095 5.6917 27.844 5.55712C29.6319 3.81656 32.0044 2.84598 34.4712 2.84599ZM34.4712 7.17266C35.8264 7.17257 37.1332 7.68843 38.1378 8.61999C38.2736 8.7522 38.4877 8.74933 38.6201 8.61353L39.9054 7.28361C39.9731 7.21386 40.0107 7.11922 40.0097 7.02089C40.0087 6.92255 39.9693 6.82872 39.9002 6.76039C36.8411 3.84629 32.1038 3.84629 29.0447 6.76039C28.9756 6.82872 28.9362 6.9226 28.9353 7.02097C28.9344 7.11933 28.972 7.21396 29.0399 7.28361L30.3248 8.61353C30.4572 8.74933 30.6713 8.7522 30.8071 8.61999C31.811 7.68905 33.1168 7.17323 34.4712 7.17266ZM37.0458 10.084C37.0478 10.1826 37.0099 10.2777 36.9412 10.3468L34.7179 12.6445C34.6527 12.712 34.5639 12.75 34.4711 12.75C34.3784 12.75 34.2896 12.712 34.2244 12.6445L32.0008 10.3468C31.9321 10.2776 31.8943 10.1825 31.8963 10.0839C31.8984 9.98529 31.94 9.89191 32.0115 9.82581C33.4314 8.59595 35.5109 8.59595 36.9308 9.82581C37.0022 9.89196 37.0438 9.98537 37.0458 10.084Z" fill="#101010"/>
<g clip-path="url(#clip0_324_692)">
<rect opacity="0.4" x="49.4707" y="0.5" width="24" height="12" rx="3.5" stroke="#101010"/>
<path opacity="0.5" d="M74.9707 4.5V8.5C75.7766 8.16122 76.3007 7.37313 76.3007 6.5C76.3007 5.62687 75.7766 4.83878 74.9707 4.5Z" fill="#101010"/>
<rect x="50.9707" y="2" width="21" height="9" rx="2" fill="#101010"/>
</g>
<defs>
<clipPath id="clip0_324_692">
<rect width="27.33" height="13" fill="white" transform="translate(48.9707)"/>
</clipPath>
</defs>
</svg>
